<?xml version="1.0" standalone="no"?>
<!DOCTYPE svg PUBLIC "-//W3C//DTD SVG 20010904//EN"
 "http://www.w3.org/TR/2001/REC-SVG-20010904/DTD/svg10.dtd">
<svg version="1.0" xmlns="http://www.w3.org/2000/svg"
 width="842.000000pt" height="842.000000pt" viewBox="0 0 842.000000 842.000000"
 preserveAspectRatio="xMidYMid meet">
<metadata>
Created by potrace 1.11, written by Peter Selinger 2001-2013
</metadata>
<g transform="translate(0.000000,842.000000) scale(0.100000,-0.100000)"
fill="#000000" stroke="none">
<path d="M4097 7094 c-1 -1 -63 -4 -137 -8 -308 -14 -343 -18 -745 -82 -343
-54 -484 -86 -780 -180 -110 -35 -247 -83 -305 -107 -98 -41 -196 -82 -379
-160 -80 -34 -315 -166 -426 -239 -219 -144 -307 -211 -485 -364 -336 -289
-622 -710 -763 -1124 -66 -193 -71 -238 -72 -590 0 -341 6 -394 69 -590 22
-68 41 -114 116 -290 14 -30 49 -97 78 -149 158 -274 310 -464 543 -679 168
-156 181 -166 256 -218 37 -25 82 -58 98 -73 17 -14 69 -50 115 -80 47 -30
103 -66 125 -81 45 -31 419 -220 492 -249 58 -23 205 -86 251 -107 18 -9 68
-26 110 -38 118 -35 360 -113 424 -136 32 -11 68 -20 80 -20 13 0 88 -15 168
-34 166 -38 235 -51 375 -66 55 -6 154 -17 220 -25 394 -46 932 -48 1335 -4
570 61 1088 192 1575 396 278 117 604 297 820 453 61 44 116 79 123 80 7 0 19
6 26 13 7 6 59 55 117 107 185 169 250 234 308 304 219 268 342 456 419 641
82 195 132 350 142 434 5 42 14 110 19 151 13 96 14 378 1 498 -11 101 -67
345 -100 431 -11 29 -56 126 -99 215 -99 205 -222 395 -352 541 -163 185 -200
223 -287 296 -51 43 -104 91 -117 106 -12 16 -69 57 -125 93 -56 36 -130 84
-164 107 -169 118 -293 196 -344 217 -31 14 -77 36 -102 50 -165 92 -752 308
-980 361 -41 9 -111 28 -155 42 -44 13 -152 35 -240 49 -88 14 -176 29 -195
35 -51 14 -165 28 -288 35 -59 3 -156 10 -217 16 -89 9 -542 27 -548 22z"/>
</g>
</svg>
